<?xml version="1.0" encoding="UTF-8"?>
<svg xmlns="http://www.w3.org/2000/svg" version="1.1" viewBox="0 0 792 612">
  <defs>
    <style>
      .cls-1 {
        fill: #fefefe;
      }

      .cls-2 {
        fill: #fff;
      }

      .cls-3 {
        fill: #0a0a0a;
      }

      .cls-4 {
        fill: #090909;
      }
    </style>
  </defs>
  <!-- Generator: Adobe Illustrator 28.7.3, SVG Export Plug-In . SVG Version: 1.2.0 Build 164)  -->
  <g>
    <g id="Layer_1">
      <g>
        <path class="cls-4" d="M162.49,325.09c9.97-20.15,19.86-40.14,29.78-60.19,1.97,1.47,2.55,4.21,1.54,6.35-2.1,4.48-4.22,8.96-6.37,13.41-6.54,13.51-13.1,27-19.65,40.51-.21.42-.54.81-.37,1.41.33.66,1.1.75,1.73,1.06,7.19,3.49,12.39,8.89,15.62,16.21,2.84,6.44,4.61,13.06,4.25,20.19-.54,10.79-4.57,20.18-11.42,28.37-8.77,10.49-19.91,16.95-33.6,18.42-11.06,1.18-20.77-1.99-29.02-9.72-11.93-11.18-15.02-24.8-10.17-39.85,6.43-19.95,20.48-32.1,41.03-36.46,4.95-1.05,10.01-1.02,15,.16.45.11.93.07,1.65.12Z"/>
        <path class="cls-4" d="M208.28,263.3c-.5-1.84-.87-3.37-.45-5.38,23.9,3.92,47.67,8.1,71.34,12.37.5-.2.76-.5.89-.89,2.82-7.99,8.82-12.76,16.34-15.83,8.19-3.34,16.74-3.95,25.45-2.81,10.46,1.36,19.92,5.12,28.01,12.01,4.72,4.02,8.31,8.84,10.16,14.83,1.31,4.23,1.3,8.54.18,12.77-3.36,12.63-11.56,20.39-24.31,23.05-15.11,3.15-29.22.41-42.13-8.1-3.35-2.21-6.29-4.94-8.79-8.1-4.26-5.38-6.73-11.38-6.27-18.38.04-.64.02-1.28,0-1.92,0-.16-.06-.31-.18-.9-23.26-4.32-46.73-8.36-70.25-12.71Z"/>
        <path class="cls-4" d="M130.06,249.4c-.95.38-1.35,1.22-1.95,1.85-10.23,10.8-22.68,16.02-37.62,14.77-8.47-.71-13.37-6.1-16.13-13.74-1.05-2.9-.54-5.84.58-8.67,1.62-4.1,4.19-7.55,7.47-10.43,9.38-8.24,20.27-12.54,32.85-12.26,2.33.05,4.61.48,6.83,1.15,4.82,1.46,8,4.49,9.87,9.3,1.64,4.22,2.32,8.26.73,12.56-.07.19.02.45.05.89,17.82,3.12,35.68,6.03,53.54,9.43.89,1.46,1.18,3.05,1.29,4.64-.96.74-1.82.41-2.67.25-18.15-3.26-36.3-6.52-54.46-9.78-.08-.01-.16.01-.39.03Z"/>
        <path class="cls-4" d="M584.68,297.02c-.98.4-.33,1.49-.99,2.2-2.28.61-4.8-.17-7.12.43-.83.89-.58,1.9-.58,2.83,0,8.8.04,17.6.07,26.4,0,.72.07,1.44-.46,2.3h-10.14v-31.52h-20.41c-.6,1.89-.2,3.7-.28,5.82,4.13.55,8.27-.17,12.5.41v9.15h-12.19c-.64,2.35-.14,4.47-.39,6.8,4.32.59,8.46.08,12.75.33.3,3.05.11,5.89.14,8.7-1.78.64-20.57.76-23.33.16v-40.86h58.8c.64.43.83,1.22,1.11,1.97,1.4,3.82,2.83,7.63,4.25,11.45.24.66.34,1.42,1.42,1.7,2.21-4.92,3.57-10.19,5.96-15.17h10.67c.5.76.03,1.29-.23,1.84-3.51,7.53-7,15.06-10.54,22.57-.66,1.41-1,2.79-.94,4.38.13,3.43.1,6.88.12,10.32,0,.63.11,1.29-.33,1.84-1.94.43-7.99.45-10.33,0-.32-1.35-.13-2.79-.14-4.2,0-3.12.02-6.24.04-9.36,0-.81-.12-1.56-.48-2.31-2.74-5.77-5.45-11.56-8.16-17.34-.18-.38-.38-.7-.79-.83Z"/>
        <path class="cls-4" d="M558.05,245.53c-.72,6.11,0,12.29-.43,18.59h-10.01v-40.98c.26-.41.65-.55,1.04-.55,5.19.04,10.39.06,15.58.18,1.27.03,2.53.3,3.79.55,6,1.18,9.4,4.65,10.49,10.65.14.74-.11,1.64.99,2.3,3.13-7.47,8.41-12.43,16.53-13.96,5.31-1,10.35-.2,15.08,2.33,8.83,4.73,13.05,14.89,10.35,24.74-2.63,9.6-11.76,16.13-22.1,15.62-5.78-.28-10.9-2.29-15-6.54-4.09-4.23-5.96-9.36-6-15.44-1.71.79-2.06,2.41-3.12,3.38-1.11,1.01-2.44,1.74-3.71,2.81,2.78,4.99,5.48,9.84,8.33,14.94h-10.97c-3.39-6.26-6.78-12.52-10.18-18.79-.22.06-.44.11-.66.17Z"/>
        <path class="cls-4" d="M431.04,317.44c-1.11,1.26-.84,2.19-.91,3.03-.6,6.56-4.05,10.31-10.55,11.46-3.53.63-7.03.45-10.42-.66-5.66-1.86-9.09-7.52-8.01-13.25h10.01c.61,2.64,1.25,5.33,4.77,5.25,2-.04,2.94-1.05,3.82-3.98-.33-1.55-1.59-2.27-2.83-3.01-1.59-.95-3.35-1.5-5.04-2.2-2.07-.86-4.06-1.85-5.9-3.15-6.35-4.51-5.09-12.84-1.94-16.63,5.01-6.03,16.1-6.87,21.95-1.65,2.7,2.41,3.51,5.56,3.94,8.9-1.77.64-6.69.77-10.05.34-.63-.36-.66-1.06-.93-1.62-1.03-2.15-3.37-2.86-5.42-1.65-1.87,1.11-2.09,3.43-.39,4.77,1.71,1.35,3.79,2.05,5.73,2.98,1.22.59,2.5,1.07,3.7,1.71,2.91,1.54,5.64,3.31,7.25,6.56-.32-8.92,2.02-16.51,9.6-21.69,4.31-2.95,9.14-4.11,14.34-3.71,10.08.76,18.2,7.99,19.82,17.54,1.94,11.43-4.65,20.35-12.38,23.59-5.93,2.48-12,2.73-17.96.22-5.83-2.46-9.94-6.76-12.16-13.14Z"/>
        <path class="cls-4" d="M218.76,211.07c-.91-.86-1.92-.86-2.81-1.13-3.32-1.02-6.43-2.41-8.97-4.86-5.43-5.26-5.6-14.95-.39-20.39,3.94-4.11,8.89-6.4,14.25-7.98,8.08-2.37,16.21-2.63,24.35-.38,3.51.97,6.7,2.6,9.28,5.24,2.05,2.09,3.16,4.58,3.15,7.53,0,.32-.03.64,0,.96.8,7.25-2.92,12.01-8.69,15.54-7.24,4.43-15.23,6-23.63,5.82-.8-.02-1.59-.18-2.72.11-6.54,13.56-13.18,27.33-19.75,40.94-1.01.07-1.27-.3-1.48-.91-.82-2.35-.42-4.5.68-6.69,5.39-10.78,10.72-21.59,16.07-32.39.21-.43.4-.86.66-1.41Z"/>
        <path class="cls-4" d="M433.02,222.78h13.69v41.31h-9.39v-28.28c-.16-.03-.32-.06-.48-.09-2.98,9.41-5.33,19.02-8.4,28.27-2.41.46-4.7.45-6.87-.05-3.04-8.86-5.16-18.15-8.46-27.12-.69,4.52-.48,8.99-.35,13.47.13,4.54.23,9.09-.02,13.9-3.21.16-6.26.14-9.5.02v-41.41c4.64-.31,9.23-.21,13.91-.06,2.86,8.34,4.86,16.79,7.49,25.07,1.23-.29,1.21-1.17,1.41-1.9,1.96-6.99,3.91-13.99,5.89-20.97.19-.68.33-1.41,1.05-2.15Z"/>
        <path class="cls-4" d="M687.82,243.49c-.09,12.59-9.49,21.65-22.34,21.54-12.42-.11-21.59-9.45-21.48-21.88.11-12.08,9.63-21.29,21.96-21.23,12.47.05,21.95,9.41,21.86,21.58Z"/>
        <path class="cls-4" d="M492.41,398.64v-40.9c.46-.59,1.05-.5,1.59-.5,5.12,0,10.24-.09,15.35.05,9.27.25,16.42,6.13,18.26,15.07,1.02,4.94.76,9.88-.98,14.65-2.54,6.97-7.93,10.44-14.97,11.47-6.03.88-12.14.45-18.21.43-.3,0-.6-.16-1.04-.28Z"/>
        <path class="cls-4" d="M690.08,223.11c.45-.24.59-.39.73-.39,6.62.03,13.27-.7,19.86.57,6.31,1.21,9.64,4.58,10.88,11.12,1.05,5.56-1.29,10.85-6.18,13.96-.26.17-.5.38-.96.74,2.69,4.92,5.38,9.81,8.26,15.07h-10.86c-3.41-6.28-6.82-12.55-10.23-18.83-.22.05-.44.1-.66.15-.42,1.97-.13,4.01-.18,6.02-.05,2.08-.01,4.16-.01,6.24v6.34h-10.62c-.05-13.79-.01-27.48-.03-41Z"/>
        <path class="cls-4" d="M506.29,315.97h10.6c.1,7.69-9.75,15.82-19.53,16.2-11.54.45-21.73-7.16-22.75-19.93-.93-11.68,7.39-21.89,19.31-22.97,11.1-1.01,21.88,6.34,23.21,16.26-3.62.43-7.22.26-10.78.1-1.02-1.45-1.69-2.9-2.87-4.02-4.66-4.45-10.99-4.21-15.23.62-4.11,4.68-4.11,12.29,0,16.98,4.69,5.35,12.24,4.96,16.5-.85.52-.7.95-1.47,1.55-2.38Z"/>
        <path class="cls-4" d="M451.36,222.74h9.99c.53,1.16.32,2.21.32,3.23,0,7.6-.02,15.19-.04,22.79,0,1.12.02,2.23.39,3.31.81,2.34,2.54,3.57,5.09,3.56,2.45-.02,3.91-1.19,4.67-3.67.41-1.33.4-2.68.4-4.04,0-7.44,0-14.87.01-22.31,0-.86-.21-1.76.49-2.93,3.09-.07,6.38-.18,9.43.04.54.55.56.95.56,1.35-.02,8.95-.05,17.91-.07,26.86-.01,5.27-2.44,9.24-6.84,11.89-3.93,2.37-8.27,2.71-12.74,1.76-7.69-1.62-11.93-6.57-12.05-14.45-.13-8.55-.06-17.11-.08-25.67,0-.55-.08-1.13.46-1.74Z"/>
        <path class="cls-4" d="M432.01,357.36h9.83c.81.86.51,1.87.51,2.79.03,7.43.02,14.87.01,22.3,0,1.53.09,3.04.65,4.48.9,2.3,2.69,3.34,5.33,3.15,2.41-.17,3.98-1.49,4.46-3.92.2-1.01.17-2.07.17-3.1,0-7.83-.04-15.66-.05-23.5,0-.63-.08-1.28.49-2.25,3.08-.14,6.38-.06,9.49-.04.96.9.72,1.83.72,2.68,0,8.15.02,16.3-.06,24.46-.09,9-6.37,15.11-15.37,15.15-5.58.03-10.41-1.55-13.79-6.27-1.46-2.04-2.39-4.32-2.47-6.88-.33-9.35-.12-18.7-.13-28.05,0-.23.1-.46.22-.99Z"/>
        <path class="cls-4" d="M401.33,385.11h9.25c.96.82.88,1.86,1.21,2.74.94,2.47,3.81,3.61,5.86,2.33,2.76-1.72,2.8-4.69-.03-6.28-1.73-.97-3.62-1.68-5.45-2.48-2.13-.92-4.21-1.89-6.16-3.19-6.1-4.04-5.81-13.94-.53-18.15,5.06-4.04,12.28-4.9,18.01-1.88,4.06,2.14,6.47,6.25,6.3,10.74-1.52.51-7.69.62-10.16.19-.46-.47-.48-1.15-.75-1.71-.99-2.01-3.39-2.67-5.29-1.45-1.95,1.24-2.13,3.31-.33,4.74.74.58,1.63.98,2.49,1.39,2.52,1.2,5.12,2.25,7.58,3.57,5.94,3.19,7.82,7.37,6.55,14.17-.95,5.05-5.16,8.79-10.96,9.57-4.2.56-8.27.07-12.09-1.92-4.1-2.13-6.61-7.62-5.5-12.38Z"/>
        <path class="cls-4" d="M638.68,264.13h-10.93v-31.78c-2.65-.69-5.24.1-7.9-.55v-9.14c8.75-.08,17.48-.02,26.48-.03.78,3.18.21,6.15.22,9.17-2.6.61-5.09,0-7.87.44v31.9Z"/>
        <path class="cls-4" d="M532.14,231.56c-.83.64-1.81.46-2.75.51-1.81.09-3.64-.23-5.76.34v31.68c-3.64.42-6.94.21-10.64.18v-31.93c-2.79-.57-5.28,0-8.04-.49-.21-2.88-.1-5.78-.04-8.53.83-.96,1.76-.73,2.61-.73,7.35,0,14.7.04,22.04.05.89,0,1.75.13,2.6.35,1.66,2.11,1.65,6.63-.02,8.58Z"/>
        <path class="cls-4" d="M464.56,366.29v-8.9h26.58v8.83c-2.45.63-5.04-.13-7.79.51v32.14c-3.65.14-7.03.05-10.85.06-.02-10.8,0-21.39,0-32.17-2.6-.66-5.18-.02-7.94-.48Z"/>
        <path class="cls-4" d="M497.71,254.97h11.96c.26,3.19.18,6.08,0,9.14h-22.11c-.58-1.74-.78-37.57-.22-41.25,3.29-.56,6.65-.05,10.37-.29v32.39Z"/>
        <path class="cls-4" d="M532.14,231.56c0-2.86.01-5.72.02-8.58,3.55-.73,7.1-.2,10.56-.36.67,2.32.67,39.35.05,41.52h-9.76c-.65-.96-.42-1.87-.43-2.72-.02-9.03,0-18.06-.01-27.09,0-.94.15-1.92-.42-2.78Z"/>
        <path class="cls-3" d="M519.9,290.12h9.81c.62,2.07.64,38.97.03,41.12h-9.69c-.61-1.7-.77-38.07-.14-41.12Z"/>
        <path class="cls-2" d="M600.45,231.37c6.52-1.12,11.83,7.08,11.25,12.67-.29,2.82-1.07,5.5-2.94,7.7-2.96,3.48-6.75,4.78-11.17,3.56-4.67-1.29-7.37-4.57-8.28-9.26-.41-2.12-.35-4.3.24-6.41,1.45-5.16,5.42-8.16,10.9-8.26Z"/>
        <path class="cls-1" d="M557.85,243.86v-11.59c2.33-.37,4.52-.49,6.68.14,2.76.81,4.17,2.93,4.08,5.98-.08,2.84-1.67,4.83-4.4,5.49-2.24.55-3.92.56-6.35-.02Z"/>
        <path class="cls-2" d="M463.27,310.86c-.19,4.18-1.5,7.85-5.13,10.29-6.62,4.45-15.23.76-17.17-7.28-.89-3.7-.23-7.14,1.77-10.32,4.19-6.65,13.71-6.81,18.16-.34,1.58,2.3,2.45,4.82,2.36,7.65Z"/>
        <path class="cls-2" d="M677.19,243.35c0,8.01-6.09,13.44-13.38,12.17-4.84-.84-8.72-5.48-9.14-10.97-.15-2.01.07-4,.81-5.89,1.56-4.01,4.34-6.75,8.71-7.28,4.99-.61,8.93,1.29,11.41,5.77,1.1,1.98,1.68,4.14,1.59,6.21Z"/>
        <path class="cls-2" d="M502.93,389.41v-22.49c6.89-2.47,13.36,1.31,14.4,8.3.38,2.57.28,5.11-.45,7.59-1.18,4.01-3.76,6.2-7.91,6.57-1.9.17-3.82.03-6.03.03Z"/>
        <path class="cls-1" d="M700.83,243.84v-11.64c2.18-.31,4.21-.41,6.23.15,3.06.85,4.51,2.94,4.33,6.24-.17,3.15-1.81,4.98-4.98,5.39-1.78.23-3.6.75-5.58-.15Z"/>
      </g>
    </g>
  </g>
</svg>